<svg xmlns="http://www.w3.org/2000/svg" viewBox="0 0 80 80">
<path fill="#8bb7f0" d="M46.5 40a6.5 6.5 0 1 1-13 0 6.5 6.5 0 0 1 13 0z"/><path fill="#4e7ab5" d="M40 47a7 7 0 1 1 .02-14.02A7 7 0 0 1 40 47zm0-13a6 6 0 1 0 .01 12.01A6 6 0 0 0 40 34z"/><path fill="#8bb7f0" d="M24.47 75.5c-1.7 0-3.26-.39-4.63-1.16-2.28-1.3-3.85-3.52-4.68-6.62-.97-3.6-.85-8.4.33-13.88C5.96 50.56.5 45.54.5 40c0-5.53 5.46-10.56 14.99-13.84-1.19-5.48-1.3-10.27-.34-13.88.83-3.1 2.41-5.33 4.69-6.62a9.27 9.27 0 0 1 4.63-1.16c4.39 0 9.9 2.73 15.53 7.7 5.64-4.97 11.14-7.7 15.53-7.7 1.7 0 3.26.4 4.63 1.17 2.27 1.29 3.85 3.51 4.68 6.6.97 3.62.85 8.4-.33 13.89C74.04 29.44 79.5 34.46 79.5 40s-5.46 10.56-15 13.84c1.2 5.48 1.3 10.27.34 13.88-.83 3.1-2.4 5.32-4.68 6.61a9.28 9.28 0 0 1-4.63 1.17c-4.39 0-9.9-2.73-15.53-7.7-5.64 4.97-11.14 7.7-15.53 7.7zM19.34 55c-1 4.72-1.1 8.75-.32 11.69.54 2.02 1.48 3.43 2.8 4.17.75.43 1.64.64 2.65.64 3.4 0 7.87-2.28 12.63-6.43a75.91 75.91 0 0 1-6.93-8.1 73.12 73.12 0 0 1-10.83-1.96zM42.9 65.07c4.75 4.16 9.22 6.44 12.62 6.44 1 0 1.9-.22 2.66-.65 1.3-.74 2.24-2.14 2.79-4.16.78-2.94.67-6.97-.32-11.68-3.36.89-7 1.55-10.83 1.97a75.87 75.87 0 0 1-6.92 8.08zm-7.34-7.67A69.16 69.16 0 0 0 40 62.33a69.42 69.42 0 0 0 4.43-4.94 93.4 93.4 0 0 1-4.43.11 93.6 93.6 0 0 1-4.43-.1zm-3.22-4.21a90.32 90.32 0 0 0 7.65.32c2.58 0 5.16-.1 7.65-.32a88.99 88.99 0 0 0 4.21-6.5A86.72 86.72 0 0 0 55.41 40a86.61 86.61 0 0 0-3.55-6.68 88.83 88.83 0 0 0-4.21-6.5A90.45 90.45 0 0 0 40 26.5c-2.59 0-5.16.1-7.65.32A86.61 86.61 0 0 0 24.6 40a87 87 0 0 0 7.76 13.18zm25.14-8.4a91.58 91.58 0 0 1-4.57 7.77 65.03 65.03 0 0 0 6.77-1.4 68.34 68.34 0 0 0-2.2-6.37zM20.3 51.15a65.45 65.45 0 0 0 6.77 1.4 92.58 92.58 0 0 1-2.38-3.84 91.92 91.92 0 0 1-2.19-3.93 68.79 68.79 0 0 0-2.2 6.37zM59.82 40a75.4 75.4 0 0 1 3.7 9.98c7.4-2.6 11.98-6.4 11.98-9.98s-4.57-7.37-11.98-9.98a74.98 74.98 0 0 1-3.7 9.98zm-43.35-9.97C9.07 32.63 4.5 36.42 4.5 40c0 3.57 4.57 7.37 11.97 9.98a75.22 75.22 0 0 1 3.7-9.98 75.22 75.22 0 0 1-3.7-9.98zm3.83-1.18a69.25 69.25 0 0 0 2.2 6.37 91.13 91.13 0 0 1 4.58-7.77 64.9 64.9 0 0 0-6.78 1.4zm32.62-1.4a91.98 91.98 0 0 1 4.57 7.77 68.68 68.68 0 0 0 2.2-6.37 65.12 65.12 0 0 0-6.77-1.4zM24.47 8.5a5.3 5.3 0 0 0-2.66.64c-1.3.74-2.25 2.15-2.8 4.18-.78 2.93-.67 6.96.33 11.67 3.36-.89 7-1.55 10.83-1.97a76.15 76.15 0 0 1 6.93-8.08c-4.76-4.16-9.23-6.44-12.63-6.44zm25.36 14.52c3.83.42 7.47 1.08 10.83 1.97 1-4.71 1.1-8.74.32-11.68-.54-2.02-1.48-3.42-2.8-4.16a5.33 5.33 0 0 0-2.65-.65c-3.4 0-7.86 2.28-12.62 6.44a76.1 76.1 0 0 1 6.92 8.08zM40 22.5c1.45 0 2.94.04 4.43.1A69.98 69.98 0 0 0 40 17.68a69.9 69.9 0 0 0-4.43 4.94A93.4 93.4 0 0 1 40 22.5z"/><path fill="#4e7ab5" d="M24.47 5c4.5 0 10 2.9 15.53 7.86C45.54 7.91 51.04 5 55.53 5c1.62 0 3.1.37 4.38 1.1 2.16 1.23 3.66 3.35 4.45 6.3 1.08 3.93.85 8.75-.43 14.09C73.15 29.57 79 34.43 79 40s-5.85 10.43-15.08 13.51c1.34 5.78 1.57 10.73.44 14.08-.8 2.96-2.3 5.09-4.44 6.3A7.67 7.67 0 0 1 55.83 75h-.41c-4.5 0-9.89-2.91-15.42-7.86C34.46 72.09 28.96 75 24.47 75c-1.62 0-3.1-.37-4.38-1.1-2.16-1.22-3.66-3.35-4.45-6.31-1.2-3.72-.95-8.6.43-14.08C6.85 50.43 1 45.57 1 40c0-5.57 5.85-10.43 15.07-13.51A40.54 40.54 0 0 1 14.93 18a21.25 21.25 0 0 1 .7-5.59c.8-2.97 2.3-5.09 4.46-6.31A8.77 8.77 0 0 1 24.47 5M18.96 25.6a72.44 72.44 0 0 1 11.48-2.11 75.2 75.2 0 0 1 7.39-8.59C32.95 10.57 28.2 8 24.47 8a5.8 5.8 0 0 0-2.9.7c-1.44.82-2.46 2.33-3.03 4.49-.86 3.2-.67 7.53.42 12.42m42.08 0c1.08-4.9 1.28-9.22.42-12.43-.58-2.15-1.6-3.66-3.03-4.47-.83-.47-1.8-.7-2.9-.7-3.74 0-8.48 2.56-13.35 6.9 2.5 2.5 5 5.38 7.38 8.59 4.14.44 8 1.16 11.48 2.11m-26.56-2.44c1.8-.11 3.6-.2 5.49-.2 1.87 0 3.75.09 5.55.2a70.44 70.44 0 0 0-5.52-6.2 70.78 70.78 0 0 0-5.52 6.2M40 54c2.76 0 5.4-.12 7.92-.34a88.4 88.4 0 0 0 4.37-6.72A86.93 86.93 0 0 0 55.96 40a87.03 87.03 0 0 0-3.67-6.94 88.2 88.2 0 0 0-4.37-6.72 89.63 89.63 0 0 0-15.84 0A87.24 87.24 0 0 0 24.04 40a87.02 87.02 0 0 0 3.66 6.94 88.4 88.4 0 0 0 4.38 6.72c2.51.22 5.16.34 7.92.34m17.55-17.59a69.45 69.45 0 0 0 2.76-7.91 66.39 66.39 0 0 0-8.43-1.7 91.97 91.97 0 0 1 5.67 9.61m-35.1 0a92.56 92.56 0 0 1 2.67-4.87 91.97 91.97 0 0 1 3-4.75c-3.06.43-5.88 1-8.44 1.71a69.7 69.7 0 0 0 2.77 7.91m40.74 14.21C71.26 47.9 76 43.87 76 40s-4.74-7.89-12.81-10.62A74.45 74.45 0 0 1 59.27 40a74.47 74.47 0 0 1 3.92 10.62m-46.38 0A74.3 74.3 0 0 1 20.73 40a74.33 74.33 0 0 1-3.92-10.62C8.73 32.12 4 36.13 4 40c0 3.87 4.74 7.88 12.81 10.62m35.07 2.59c3.06-.43 5.88-1 8.43-1.71a69.93 69.93 0 0 0-2.76-7.91 91.97 91.97 0 0 1-5.67 9.62m-23.77 0a93.04 93.04 0 0 1-3-4.75 92.46 92.46 0 0 1-2.66-4.87 69.58 69.58 0 0 0-2.76 7.91c2.55.7 5.37 1.28 8.42 1.7M24.47 72c3.74 0 8.49-2.57 13.36-6.91-2.52-2.49-5-5.38-7.4-8.59-4.13-.44-8-1.16-11.47-2.11-1.08 4.9-1.28 9.22-.42 12.42.58 2.16 1.6 3.67 3.03 4.48.83.47 1.8.71 2.9.71m31.06 0c1.1 0 2.07-.24 2.9-.71 1.43-.81 2.45-2.32 3.03-4.48.86-3.2.66-7.53-.42-12.42a72.32 72.32 0 0 1-11.48 2.11 75.18 75.18 0 0 1-7.38 8.59c4.87 4.34 9.6 6.9 13.35 6.9M40 63.05a70.78 70.78 0 0 0 5.52-6.2c-1.8.1-3.56.33-5.44.33-1.88 0-3.8-.23-5.6-.34A70.52 70.52 0 0 0 40 63.04M24.12 4.07c-1.8 0-3.09.34-4.53 1.16-2.4 1.36-4.05 3.69-4.92 6.92-.96 3.59-.87 8.3.24 13.68C5.4 29.2 0 34.33 0 40c0 5.68 5.42 10.81 14.9 14.17-1.1 5.38-1.19 10.1-.23 13.68.87 3.23 2.52 5.56 4.93 6.93 1.44.81 3.17 1.16 4.96 1.16 4.49 0 9.76-2.54 15.44-7.47C45.7 73.4 51.04 76 55.53 76c1.8 0 3.44-.42 4.88-1.23 2.4-1.36 4.05-3.69 4.91-6.92.96-3.59.88-8.3-.23-13.68C74.58 50.81 80 45.67 80 40s-5.42-10.81-14.91-14.17c1.11-5.38 1.2-10.1.23-13.68-.86-3.23-2.52-5.56-4.91-6.92A9.77 9.77 0 0 0 55.52 4C51.04 4 45.69 6.6 40 11.53 34.32 6.6 28.94 4.07 24.45 4.07h-.33zm-4.4 20.3c-.46-2.32-.77-4.5-.79-6.4-.01-1.72.22-3.22.57-4.53.5-1.89 1.37-3.19 2.56-3.87a4.9 4.9 0 0 1 2.42-.64c3.18 0 7.37 2.18 11.89 6.03a76.75 76.75 0 0 0-6.47 7.59c-3.58.4-7 1.01-10.18 1.83zm23.92-9.4C48.15 11.1 52.34 9 55.53 9c.92 0 1.73.2 2.41.58 1.19.68 2.05 1.98 2.56 3.86.87 2.82.76 6.57-.22 10.94a74.1 74.1 0 0 0-10.18-1.83 76.96 76.96 0 0 0-6.46-7.58zm-6.97 7.09A68.9 68.9 0 0 1 40 18.38a68.45 68.45 0 0 1 3.33 3.68 93.3 93.3 0 0 0-6.66 0zm-4.04 5.24c2.4-.2 4.88-.34 7.37-.34 2.5 0 4.97.14 7.37.34a87.8 87.8 0 0 1 4.06 6.27A86.35 86.35 0 0 1 54.85 40a86.58 86.58 0 0 1-7.48 12.7c-2.4.2-4.88.47-7.37.47-2.5 0-4.97-.27-7.38-.47a87.37 87.37 0 0 1-4.06-6.27A85.94 85.94 0 0 1 25.14 40a86.2 86.2 0 0 1 7.48-12.7zm24.8 6.72a92.55 92.55 0 0 0-3.48-5.9c1.78.3 3.49.67 5.12 1.08a67.47 67.47 0 0 1-1.65 4.82zm-36.5-4.82a63.92 63.92 0 0 1 5.11-1.07 91.83 91.83 0 0 0-1.78 2.9 94.03 94.03 0 0 0-1.69 3 66.93 66.93 0 0 1-1.64-4.82zM60.36 40a76.08 76.08 0 0 0 3.5-9.33C70.75 33.2 75 36.72 75 40s-4.24 6.8-11.14 9.33a76.21 76.21 0 0 0-3.5-9.33zm-44.22 9.33C9.24 46.8 5 43.28 5 40s4.24-6.8 11.14-9.33c.9 3.04 2.07 6.17 3.49 9.33a76.15 76.15 0 0 0-3.49 9.33zm37.81 2.55a92.17 92.17 0 0 0 3.47-5.9 67.84 67.84 0 0 1 1.65 4.82 64.94 64.94 0 0 1-5.12 1.08zm-33.02-1.09a67.53 67.53 0 0 1 1.64-4.81 91.99 91.99 0 0 0 3.47 5.9 64.73 64.73 0 0 1-5.11-1.09zM24.47 71c-.92 0-1.73-.2-2.4-.58-1.2-.67-2.06-1.97-2.57-3.87-.83-2.84-.73-6.59.22-10.93 3.18.82 6.6 1.43 10.18 1.83a77.04 77.04 0 0 0 6.46 7.59C31.85 68.89 27.66 71 24.47 71zM50.1 57.45c3.58-.4 7-1.01 10.18-1.83 1.1 4.74 1.19 8.52.21 10.94-.5 1.88-1.36 3.18-2.55 3.86-.68.38-1.49.58-2.41.58v1-1c-3.18 0-7.38-2.11-11.9-5.97a76.73 76.73 0 0 0 6.47-7.58zM40 61.62a68.17 68.17 0 0 1-3.33-3.68 93.47 93.47 0 0 0 6.66 0A68.14 68.14 0 0 1 40 61.62z"/></svg>
