<svg xmlns="http://www.w3.org/2000/svg" viewBox="0 0 53 53" style="enable-background:new 0 0 53 53" xml:space="preserve">
    <path style="fill:#efce4a" d="M26.5 9c-8.837 0-16 7.164-16 16 0 7.089 4.615 13.091 11 15.192V50h2v3h6v-3h2v-9.808c6.385-2.101 11-8.103 11-15.192 0-8.836-7.163-16-16-16zM26.5 0a1 1 0 0 0-1 1v4a1 1 0 1 0 2 0V1a1 1 0 0 0-1-1zM50.5 24h-4a1 1 0 1 0 0 2h4a1 1 0 1 0 0-2zM6.5 24h-4a1 1 0 1 0 0 2h4a1 1 0 1 0 0-2zM42.764 7.322l-2.828 2.828a.999.999 0 1 0 1.414 1.414l2.828-2.828a.999.999 0 1 0-1.414-1.414zM11.65 38.436l-2.828 2.828a.999.999 0 1 0 1.414 1.414l2.828-2.828a.999.999 0 1 0-1.414-1.414zM41.35 38.436a.999.999 0 1 0-1.414 1.414l2.828 2.828a.997.997 0 0 0 1.414 0 .999.999 0 0 0 0-1.414l-2.828-2.828zM10.236 7.322a.999.999 0 1 0-1.414 1.414l2.828 2.828a.997.997 0 0 0 1.414 0 .999.999 0 0 0 0-1.414l-2.828-2.828z"/>
    <path style="fill:#f7e6a1" d="M15.5 26a1 1 0 0 1-1-1c0-6.617 5.383-12 12-12a1 1 0 1 1 0 2c-5.514 0-10 4.486-10 10a1 1 0 0 1-1 1z"/>
    <path style="fill:#556080" d="M21.5 43v7h2v3h6v-3h2v-7z"/>
</svg>
