<svg xmlns="http://www.w3.org/2000/svg" viewBox="0 0 512 512" style="enable-background:new 0 0 512 512" xml:space="preserve">
    <path style="fill:#444" d="M182.857 0H36.571C16.374 0 0 16.374 0 36.571v146.286c0 20.197 16.374 36.571 36.571 36.571h146.286c20.197 0 36.571-16.374 36.571-36.571V36.571C219.429 16.374 203.054 0 182.857 0zM182.857 292.571H36.571C16.374 292.571 0 308.946 0 329.143v146.286C0 495.626 16.374 512 36.571 512h146.286c20.197 0 36.571-16.374 36.571-36.571V329.143c.001-20.197-16.374-36.572-36.571-36.572zM475.429 0H329.143c-20.197 0-36.571 16.374-36.571 36.571v146.286c0 20.197 16.374 36.571 36.571 36.571h146.286c20.197 0 36.571-16.374 36.571-36.571V36.571C512 16.374 495.626 0 475.429 0zM475.429 292.571H329.143c-20.197 0-36.571 16.374-36.571 36.571v146.286c0 20.197 16.374 36.571 36.571 36.571h146.286C495.626 512 512 495.626 512 475.429V329.143c0-20.197-16.374-36.572-36.571-36.572z"/>
</svg>
