<svg xmlns="http://www.w3.org/2000/svg" viewBox="0 0 384.97 384.97" style="enable-background:new 0 0 384.97 384.97" xml:space="preserve">
    <path fill="#fff" d="M12.03 84.212h360.909c6.641 0 12.03-5.39 12.03-12.03 0-6.641-5.39-12.03-12.03-12.03H12.03C5.39 60.152 0 65.541 0 72.182c0 6.641 5.39 12.03 12.03 12.03zm360.909 96.243H12.03c-6.641 0-12.03 5.39-12.03 12.03s5.39 12.03 12.03 12.03h360.909c6.641 0 12.03-5.39 12.03-12.03s-5.389-12.03-12.03-12.03zm0 120.303H12.03c-6.641 0-12.03 5.39-12.03 12.03 0 6.641 5.39 12.03 12.03 12.03h360.909c6.641 0 12.03-5.39 12.03-12.03.001-6.641-5.389-12.03-12.03-12.03z"/>
</svg>
